<?xml version="1.0" standalone="no"?>
<!DOCTYPE svg PUBLIC "-//W3C//DTD SVG 20010904//EN"
 "http://www.w3.org/TR/2001/REC-SVG-20010904/DTD/svg10.dtd">
<svg version="1.0" xmlns="http://www.w3.org/2000/svg"
 width="236" height="60" viewBox="0 0 632.000000 120.000000"
 preserveAspectRatio="xMidYMid meet">

<g transform="translate(0.000000,120.000000) scale(0.100000,-0.100000)"
fill="#000000" stroke="none">
<path d="M180 636 l0 -394 55 -4 c30 -1 60 -1 65 0 6 2 10 80 10 200 0 108 4
192 8 186 5 -5 39 -83 77 -174 84 -204 87 -210 95 -210 3 0 44 90 91 201 l84
201 3 -207 2 -207 23 6 c12 3 79 6 150 6 l127 0 0 395 0 395 -30 0 c-20 0 -30
-5 -30 -15 0 -8 9 -15 20 -15 20 0 20 -7 20 -370 l0 -370 -125 0 -125 0 0 150
0 150 40 0 c52 0 103 21 124 51 9 14 16 43 16 73 0 44 -4 53 -39 86 l-38 36
27 16 c60 34 58 137 -3 182 -24 18 -45 21 -148 24 l-119 4 0 -235 c0 -225 1
-236 19 -239 18 -3 15 -14 -34 -128 -49 -115 -54 -123 -64 -100 -6 14 -42 99
-80 190 -62 150 -70 165 -94 168 l-27 3 0 -215 0 -216 -35 0 -35 0 0 370 0
370 135 0 c113 0 135 2 135 15 0 13 -23 15 -150 15 l-150 0 0 -394z m636 331
c26 -30 31 -75 13 -109 -17 -32 -71 -48 -159 -48 l-80 0 0 96 0 96 101 -4 c96
-3 102 -4 125 -31z m5 -216 c65 -66 15 -161 -86 -161 l-35 0 0 50 c0 46 -2 50
-23 50 -18 0 -28 -11 -44 -50 -32 -76 -43 -64 -43 45 l0 95 101 0 c98 0 101
-1 130 -29z"/>
<path d="M1430 830 c0 -163 1 -170 20 -170 18 0 20 8 22 142 l3 143 57 -140
c31 -77 59 -140 63 -140 4 0 33 63 64 140 l56 140 3 -142 c2 -135 4 -143 22
-143 19 0 20 7 20 170 l0 170 -28 0 c-27 0 -31 -6 -78 -121 -27 -66 -53 -122
-58 -122 -5 -1 -32 53 -60 121 -47 115 -52 122 -78 122 l-28 0 0 -170z"/>
<path d="M2021 863 c-30 -76 -61 -153 -68 -170 -12 -31 -12 -33 7 -33 14 0 25
12 36 40 l16 40 85 0 84 0 17 -40 c11 -25 24 -40 35 -40 9 0 17 4 17 8 0 4
-29 79 -64 167 -55 139 -67 160 -87 163 -22 2 -29 -9 -78 -135z m118 -1 c17
-46 31 -86 31 -88 0 -2 -33 -4 -74 -4 l-74 0 36 95 c19 53 39 92 42 88 4 -4
21 -46 39 -91z"/>
<path d="M2440 831 c0 -164 1 -171 20 -171 18 0 20 7 20 65 l0 65 38 0 c35 0
40 -5 80 -65 29 -44 49 -65 62 -65 18 0 15 8 -25 67 l-44 67 30 13 c59 25 72
118 23 164 -21 19 -38 24 -114 27 l-90 4 0 -171z m174 118 c19 -15 26 -30 26
-54 0 -49 -37 -75 -106 -75 l-54 0 0 75 0 75 54 0 c39 0 60 -6 80 -21z"/>
<path d="M2880 830 c0 -163 1 -170 20 -170 19 0 20 7 20 170 0 163 -1 170 -20
170 -19 0 -20 -7 -20 -170z"/>
<path d="M3130 830 c0 -163 1 -170 20 -170 18 0 20 8 22 137 l3 137 99 -137
c135 -186 136 -186 136 33 0 162 -1 170 -20 170 -18 0 -20 -8 -22 -132 l-3
-133 -98 133 c-136 181 -137 181 -137 -38z"/>
<path d="M3671 863 c-30 -76 -61 -153 -68 -170 -12 -31 -12 -33 7 -33 14 0 25
12 36 40 l16 40 85 0 84 0 17 -40 c11 -25 24 -40 35 -40 9 0 17 4 17 8 0 4
-29 79 -64 167 -55 139 -67 160 -87 163 -22 2 -29 -9 -78 -135z m118 -2 c17
-46 30 -86 27 -88 -2 -2 -35 -3 -73 -1 l-70 3 35 93 c20 51 39 89 42 85 4 -5
22 -46 39 -92z"/>
<path d="M4350 831 l0 -171 80 0 c99 0 143 16 158 59 14 38 -1 87 -31 103 -18
9 -19 12 -5 22 42 31 48 83 14 122 -22 26 -29 28 -120 32 l-96 4 0 -171z m178
123 c25 -17 31 -71 10 -92 -7 -7 -40 -12 -80 -12 l-68 0 0 60 0 60 58 0 c36 0
66 -6 80 -16z m18 -159 c8 -10 14 -28 14 -40 0 -44 -23 -59 -99 -63 l-71 -4 0
67 0 67 71 -4 c55 -3 74 -8 85 -23z"/>
<path d="M4851 863 c-30 -76 -61 -153 -68 -170 -12 -31 -12 -33 7 -33 14 0 25
12 36 40 l16 40 85 0 84 0 17 -40 c11 -25 24 -40 35 -40 9 0 17 4 17 8 0 4
-29 79 -64 167 -55 139 -67 160 -87 163 -22 2 -29 -9 -78 -135z m118 -2 c17
-46 30 -86 27 -88 -2 -2 -35 -3 -73 -1 l-70 3 35 93 c20 51 39 89 42 85 4 -5
22 -46 39 -92z"/>
<path d="M5252 878 c5 -173 31 -212 137 -212 103 0 131 48 131 219 0 108 -1
115 -20 115 -19 0 -20 -7 -20 -124 0 -118 -1 -127 -24 -153 -21 -24 -31 -28
-72 -27 -38 1 -52 6 -71 28 -21 25 -23 36 -23 152 0 119 -1 124 -21 124 -20 0
-21 -3 -17 -122z"/>
<path d="M5740 830 c0 -163 1 -170 20 -170 18 0 20 8 22 142 l3 143 57 -140
c31 -77 60 -139 64 -138 4 1 33 64 63 140 l56 138 3 -142 c2 -135 4 -143 22
-143 19 0 20 7 20 170 l0 170 -28 0 c-27 0 -31 -6 -78 -121 -27 -66 -53 -122
-58 -122 -5 -1 -32 53 -60 121 -47 115 -52 122 -78 122 l-28 0 0 -170z"/>
<path d="M1410 305 c0 -43 4 -75 10 -75 6 0 10 32 10 75 0 43 -4 75 -10 75 -6
0 -10 -32 -10 -75z"/>
<path d="M1670 324 l0 -56 -60 52 -60 52 2 -74 c2 -70 2 -71 5 -15 l4 58 60
-51 59 -52 0 71 c0 39 -2 71 -5 71 -3 0 -5 -25 -5 -56z"/>
<path d="M1803 373 c26 -4 27 -6 27 -74 0 -39 4 -69 10 -69 6 0 10 30 10 69 0
68 1 70 28 74 15 2 -2 4 -38 4 -36 0 -53 -2 -37 -4z"/>
<path d="M1990 305 l0 -75 48 2 c43 1 44 2 10 5 -34 4 -38 7 -38 33 0 25 4 29
33 33 l32 4 -32 1 c-29 2 -33 5 -33 31 0 27 4 30 38 34 34 3 33 4 -10 5 l-48
2 0 -75z"/>
<path d="M2180 305 c0 -43 4 -75 10 -75 6 0 10 14 10 30 0 18 5 30 13 30 7 0
23 -13 35 -30 13 -16 27 -30 33 -30 6 0 3 7 -5 16 -31 31 -40 56 -22 66 39 22
7 68 -48 68 -26 0 -26 -1 -26 -75z m67 49 c8 -20 -8 -48 -31 -52 -12 -3 -16 4
-16 32 0 30 4 36 20 36 11 0 23 -7 27 -16z"/>
<path d="M2390 305 c0 -43 4 -75 10 -75 6 0 10 32 10 75 0 43 -4 75 -10 75 -6
0 -10 -32 -10 -75z"/>
<path d="M2588 373 c7 -3 16 -2 19 1 4 3 -2 6 -13 5 -11 0 -14 -3 -6 -6z"/>
<path d="M2770 305 c0 -43 4 -75 10 -75 6 0 10 14 10 30 0 18 5 30 13 30 7 0
26 -13 42 -30 39 -40 52 -39 15 2 l-30 32 21 19 c11 10 18 26 15 34 -3 8 -6
17 -6 19 0 2 -4 4 -9 4 -5 0 -7 -10 -4 -21 4 -15 0 -27 -12 -35 -31 -23 -45
-17 -45 20 0 28 4 35 23 39 16 3 13 5 -10 6 l-33 1 0 -75z"/>
<path d="M3120 305 l0 -75 33 1 c23 1 26 3 10 6 -21 4 -23 10 -23 68 0 58 2
64 23 68 16 3 13 5 -10 6 l-33 1 0 -75z"/>
<path d="M3340 305 l0 -75 48 2 c43 1 44 2 10 5 -34 4 -38 7 -38 33 0 25 4 29
33 33 l32 4 -32 1 c-29 2 -33 5 -33 31 0 27 4 30 38 34 34 3 33 4 -10 5 l-48
2 0 -75z"/>
<path d="M3548 373 c7 -3 16 -2 19 1 4 3 -2 6 -13 5 -11 0 -14 -3 -6 -6z"/>
<path d="M3720 305 c0 -43 4 -75 10 -75 6 0 10 32 10 75 0 43 -4 75 -10 75 -6
0 -10 -32 -10 -75z"/>
<path d="M3918 373 c7 -3 16 -2 19 1 4 3 -2 6 -13 5 -11 0 -14 -3 -6 -6z"/>
<path d="M4209 327 l-4 -58 -57 51 -58 52 2 -74 c2 -70 2 -71 5 -15 l4 58 57
-51 57 -51 3 35 c2 20 2 53 0 74 -3 31 -5 27 -9 -21z"/>
<path d="M4480 365 c-13 -16 -10 -23 31 -76 16 -20 26 -39 22 -43 -3 -3 0 -6
9 -6 8 0 15 7 15 15 0 8 -2 13 -5 10 -3 -2 -13 7 -24 21 -16 19 -17 28 -8 39
6 8 10 22 7 32 -4 14 -5 14 -6 -4 -1 -30 -18 -38 -31 -14 -8 16 -6 22 7 30 10
6 13 11 7 11 -6 0 -17 -7 -24 -15z"/>
<path d="M4828 373 c7 -3 16 -2 19 1 4 3 -2 6 -13 5 -11 0 -14 -3 -6 -6z"/>
<path d="M5003 373 c26 -4 27 -6 27 -74 0 -39 4 -69 10 -69 6 0 10 30 10 69 0
68 1 70 28 74 15 2 -2 4 -38 4 -36 0 -53 -2 -37 -4z"/>
<path d="M5180 375 c0 -3 9 -23 20 -45 11 -22 20 -53 20 -70 0 -44 17 -37 22
9 2 22 0 37 -4 35 -4 -3 -16 13 -28 36 -18 36 -30 49 -30 35z"/>
<path d="M5380 305 l0 -75 48 2 c43 1 44 2 10 5 l-38 4 0 70 c0 39 -4 69 -10
69 -6 0 -10 -32 -10 -75z"/>
<path d="M5580 305 c0 -43 4 -75 10 -75 6 0 10 32 10 75 0 43 -4 75 -10 75 -6
0 -10 -32 -10 -75z"/>
<path d="M5830 323 l0 -57 -55 54 -55 54 2 -74 c2 -73 2 -73 5 -16 l4 59 55
-54 54 -53 0 72 c0 40 -2 72 -5 72 -3 0 -5 -26 -5 -57z"/>
<path d="M6018 373 c7 -3 16 -2 19 1 4 3 -2 6 -13 5 -11 0 -14 -3 -6 -6z"/>
<path d="M2536 348 c-9 -12 -16 -32 -16 -43 0 -24 26 -65 42 -65 6 0 4 8 -5
18 -10 10 -17 31 -17 47 0 16 7 37 17 47 9 10 11 18 5 18 -6 0 -18 -10 -26
-22z"/>
<path d="M2644 350 c9 -13 16 -34 16 -45 0 -11 -7 -32 -16 -45 -14 -22 -12
-22 10 3 14 15 26 34 26 42 0 8 -12 27 -26 42 -22 25 -24 25 -10 3z"/>
<path d="M3203 352 c21 -23 22 -76 1 -96 -8 -9 -11 -16 -5 -16 15 0 41 41 41
65 0 24 -26 65 -42 65 -6 0 -4 -8 5 -18z"/>
<path d="M3516 354 c-8 -21 7 -38 45 -54 25 -11 30 -18 26 -38 -4 -21 -3 -22
10 -10 19 20 9 40 -35 63 -24 14 -36 27 -34 38 4 22 -4 22 -12 1z"/>
<path d="M3866 348 c-9 -12 -16 -32 -16 -43 0 -25 27 -65 43 -65 7 0 4 5 -5
11 -23 13 -24 81 -2 103 8 9 11 16 5 16 -5 0 -17 -10 -25 -22z"/>
<path d="M4796 354 c-8 -21 7 -38 45 -54 25 -11 30 -18 26 -38 -4 -21 -3 -22
10 -10 19 20 9 40 -35 63 -24 14 -36 27 -34 38 4 22 -4 22 -12 1z"/>
<path d="M5966 355 c-8 -8 -18 -24 -21 -35 -7 -24 14 -72 35 -78 12 -4 11 -1
-2 15 -22 24 -23 61 -2 91 17 25 13 29 -10 7z"/>
<path d="M4561 294 c0 -11 3 -14 6 -6 3 7 2 16 -1 19 -3 4 -6 -2 -5 -13z"/>
<path d="M4458 287 c-10 -24 -11 -23 8 -41 8 -9 25 -16 37 -15 20 0 19 2 -5
10 -18 7 -28 19 -30 37 -3 23 -4 24 -10 9z"/>
<path d="M3958 283 c6 -2 12 -16 12 -29 0 -13 5 -24 10 -24 6 0 10 14 10 30 0
25 -4 30 -22 29 -13 0 -17 -3 -10 -6z"/>
<path d="M6058 281 c8 -4 12 -16 10 -26 -2 -10 3 -20 10 -22 8 -3 12 6 12 26
0 26 -4 31 -22 31 -17 0 -19 -3 -10 -9z"/>
<path d="M3510 261 c0 -6 4 -13 10 -16 6 -3 7 1 4 9 -7 18 -14 21 -14 7z"/>
<path d="M4790 261 c0 -6 4 -13 10 -16 6 -3 7 1 4 9 -7 18 -14 21 -14 7z"/>
<path d="M2588 233 c7 -3 16 -2 19 1 4 3 -2 6 -13 5 -11 0 -14 -3 -6 -6z"/>
<path d="M3548 233 c7 -3 16 -2 19 1 4 3 -2 6 -13 5 -11 0 -14 -3 -6 -6z"/>
<path d="M3918 233 c7 -3 16 -2 19 1 4 3 -2 6 -13 5 -11 0 -14 -3 -6 -6z"/>
<path d="M4828 233 c7 -3 16 -2 19 1 4 3 -2 6 -13 5 -11 0 -14 -3 -6 -6z"/>
<path d="M6008 233 c6 -2 18 -2 25 0 6 3 1 5 -13 5 -14 0 -19 -2 -12 -5z"/>
</g>
</svg>
